<?xml version="1.0" encoding="UTF-8"?>
<svg xmlns="http://www.w3.org/2000/svg" viewBox="0 0 33.72 33.72">
  <style>
    path { fill: #0A0A0A; }
    @media (prefers-color-scheme: dark) {
      path { fill: #F2F1EC; }
    }
  </style>
  <path d="M12.61,10.03c-.3.45-.6.96-.87,1.51-.29.59-.55,1.13-.78,1.66-.18.42-.32.76-.41.98-.24-.15-.49-.27-.75-.36-.52-.19-1.07-.28-1.65-.28-.83,0-1.71.16-2.6.46-.02.01-.04.01-.05.02.09-.07.19-.14.28-.21.87-.64,1.83-1.27,2.89-1.89,1.1-.66,2.33-1.29,3.66-1.86.12-.06.25-.11.38-.16-.04.04-.07.09-.1.13ZM7.67,9.85c2.15-1.21,4.23-2.19,6.17-2.9,1.98-.73,3.84-1.24,5.54-1.52,1.67-.28,3.18-.43,4.47-.43.69,0,1.26.03,1.76.09l2.06.23c-.83.3-2.43,1.23-3.54,2.07h-.21c-1.17,0-2.38.11-3.59.31-1.31.21-2.67.52-4.04.92-.63.19-1.26.39-1.88.62.03.02.06.04.08.05.18.14.42.41.42.92,0,.25-.07.63-.45.98l-.03.04-.04.02s-.08.1-.25.37c-.18.3-.36.63-.53.98-.2.4-.39.82-.58,1.25l-.11.24c-.15.36-.3.68-.43.99,0,0-.34.81-.46,1.1.02.06.06.16.1.28.16.41.23.99.23,1.83v.11c.22-.33.49-.69.8-1.07.75-.93,1.7-1.96,2.81-3.06,1.11-1.08,2.37-2.2,3.74-3.31,1.36-1.1,2.78-2.15,4.22-3.1,1.21-.8,4.3-2.48,4.3-2.48,1.38-.67,2.66-1.11,3.79-1.29.15-.03.3-.05.45-.05h.3c.29,0,.57.04.84.12-.47-2.37-2.56-4.16-5.07-4.16H5.17C2.31,0,0,2.32,0,5.18v10.5c.32-.33.72-.72,1.23-1.19,2.11-1.86,4.27-3.42,6.44-4.64ZM31.27,13.18c-.18.26-.32.48-.42.64-.1.15-.17.28-.23.38-.11.18-.21.31-.34.4-.15.12-.34.19-.54.19-.43,0-.78-.26-.92-.67-.07-.22-.09-.45-.05-.68.03-.19.11-.41.25-.69.11-.22.28-.53.53-.92.23-.37.55-.85.95-1.44l.62-.92c.26-.39.53-.8.8-1.25.28-.45.52-.88.73-1.29.1-.2.16-.36.2-.48h-.08c-.51,0-1.2.16-2.05.48-.91.34-1.91.8-2.99,1.38-1.09.59-2.24,1.3-3.43,2.1-1.2.81-2.4,1.7-3.57,2.64-1.16.95-2.29,1.95-3.35,2.98-1.04,1.01-1.98,2.05-2.79,3.09-.32.4-.58.76-.77,1.08.37.03.84.04,1.39.04h1.87c.83,0,1.73.03,2.66.07.96.04,1.89.15,2.77.33.91.17,1.75.45,2.49.81.8.39,1.45.94,1.91,1.63.45.66.66,1.36.62,2.09-.03.69-.24,1.37-.62,2.01-.36.61-.84,1.18-1.42,1.7-.56.51-1.19.96-1.88,1.35-.69.39-1.41.7-2.14.92-.76.23-1.49.35-2.18.35-.14,0-.26-.01-.39-.03-.05,0-.1-.02-.15-.02h-.08c-.59-.07-1.14-.25-1.64-.53-.5-.29-.92-.66-1.25-1.1-.33-.46-.55-1-.64-1.6-.09-.58-.03-1.21.18-1.86.03-.1.07-.22.14-.38.07-.16.15-.33.24-.52.11-.24.24-.45.39-.63.26-.32.55-.48.87-.48.36,0,.78.2.93.76.11.34.05.72-.18,1.13-.12.22-.23.46-.35.73-.09.22-.15.47-.17.74-.01.17.06.36.22.58.2.29.42.48.71.59.34.13.72.2,1.14.2.69,0,1.44-.16,2.22-.47.81-.33,1.55-.73,2.21-1.21.63-.46,1.12-.96,1.46-1.5.4-.63.28-.99.24-1.11-.14-.42-.45-.76-.94-1.02-.58-.32-1.29-.56-2.11-.73-.84-.17-1.76-.28-2.72-.32-.98-.04-1.92-.06-2.81-.06s-1.71,0-2.41-.02c-.81-.02-1.35-.1-1.71-.25-.39-.15-.69-.38-.89-.66-.14.48-.3.97-.47,1.45-.29.84-.63,1.65-.99,2.42-.36.75-.71,1.45-1.05,2.08-.35.65-.66,1.17-.96,1.61-.44.65-.67.86-.82.98-.24.17-.49.26-.75.26-.09,0-.17,0-.26-.03h-.04s-.17-.1-.17-.1c-.79-.46-.64-1.6-.58-2.03.09-.74.28-1.62.59-2.68.28-.99.63-2.08,1.03-3.22.38-1.11.77-2.16,1.15-3.14.33-.85.71-1.81,1.15-2.92l-.03-.02c-.21-.17-.44-.29-.67-.35-.26-.09-.55-.12-.86-.12-.65,0-1.37.14-2.14.43-.85.33-1.62.66-2.36,1.02-.77.38-1.46.72-2.08,1.04-.63.32-1.1.5-1.49.55v9.59c0,2.86,2.31,5.17,5.17,5.17h23.37c2.86,0,5.18-2.31,5.18-5.17V9.46c-.6,1-1.43,2.25-2.45,3.72Z"/>
</svg>
